<?xml version="1.0" encoding="UTF-8" standalone="no"?>
<!-- Created with Inkscape (http://www.inkscape.org/) -->

<svg
   version="1.1"
   id="svg2"
   width="415"
   height="437"
   viewBox="0 0 415 437"
   xmlns="http://www.w3.org/2000/svg"
   xmlns:svg="http://www.w3.org/2000/svg">
  <defs
     id="defs6" />
  <g
     id="g8">
    <path
       style="fill:#414141"
       d="M 196.36084,376.88532 C 177.39922,367.05018 165.9844,359.87654 153.5,349.94942 117.14652,321.04254 90.35297,282.10201 75.095579,236 69.713167,219.7364 67.824706,212.31799 64.149337,193 60.151498,171.98709 59.5,163.29921 59.5,131 59.5,97.386529 59.989044,93.314334 64.276457,91.227218 65.499406,90.631886 74.825,89.861887 85,89.51611 146.23846,87.435042 184.56584,75.976151 200.56864,54.964082 203.48275,51.137788 207.0862,49 210.62167,49 c 2.48029,0 4.62807,1.315323 9.79756,6.000121 7.86454,7.127158 11.9385,9.785848 24.58077,16.041557 11.02806,5.456957 25.06075,9.983353 40.18429,12.961881 15.02798,2.959707 22.56615,3.799698 44.81571,4.993889 22.83679,1.225709 23.5382,1.343642 25.38667,4.268429 1.73457,2.744568 3.61774,23.400253 3.60148,39.503013 -0.0115,11.40068 -1.94163,35.53444 -3.97728,49.73111 -2.54468,17.74666 -9.43544,46.07555 -13.98637,57.5 -0.98592,2.475 -3.47455,8.775 -5.53029,14 -13.79836,35.07082 -40.23815,70.81893 -69.82491,94.40729 -19.51001,15.55457 -49.9082,33.34355 -57.30846,33.53684 -1.17654,0.0307 -6.57654,-2.24574 -12,-5.05881 z m 17.27996,-13.65299 c 18.80522,-8.61355 38.86956,-22.83038 56.72547,-40.19353 14.00448,-13.61801 21.00452,-21.94313 29.88225,-35.5388 18.79213,-28.77894 30.28746,-57.94011 37.64611,-95.5 4.16504,-21.25914 6.82712,-57.62486 5.49022,-75 L 342.5,105.5 331,104.78556 c -55.87183,-3.47102 -87.69792,-12.779863 -117.84493,-34.468552 -1.55201,-1.116562 -2.77468,-1.37085 -3.61584,-0.752012 -0.69899,0.514252 -4.59377,3.478574 -8.65506,6.587383 -9.17519,7.023355 -13.11128,9.227801 -23.99218,13.437066 -21.67063,8.38326 -50.00513,13.357535 -86.385554,15.165455 l -14.993564,0.7451 -0.638121,3 c -0.350967,1.65 -0.690652,12 -0.754856,23 -0.325716,55.80454 13.561651,108.99609 39.292865,150.5 7.10665,11.46287 8.98977,14.05094 18.19039,25 13.79938,16.42175 32.35667,32.70604 50.41657,44.24128 8.45743,5.40194 24.28293,13.72927 26.12108,13.74483 0.90243,0.008 3.37743,-0.78156 5.5,-1.75378 z M 207.5,298.90627 c -9.04477,-0.59667 -15.12985,-1.76213 -23.48838,-4.49866 -7.89941,-2.58621 -7.9244,-2.63893 -4.33563,-9.14759 3.65371,-6.62641 3.70022,-6.6363 15.32401,-3.25934 10.03814,2.9163 26.43659,3.19274 37,0.62373 21.23454,-5.16421 41.40229,-21.09757 50.15485,-39.62441 6.28445,-13.30251 7.0944,-16.62794 7.59663,-31.18939 0.4329,-12.55119 0.25643,-14.44146 -2.12246,-22.73466 -7.06473,-24.62888 -25.55821,-43.63383 -50.6506,-52.05142 -9.38341,-3.1478 -27.90948,-3.89933 -38.55864,-1.56419 -23.34997,5.12018 -43.38936,21.53359 -53.26309,43.62553 -3.55608,7.95654 -4.86909,13.25236 -6.22856,25.1221 -0.58534,5.11061 -1.31588,11.42953 -1.62342,14.04203 -0.30754,2.6125 -0.16309,4.75 0.32101,4.75 0.48409,0 4.39953,-3.16533 8.70098,-7.03407 l 7.8208,-7.03407 3.35405,2.78407 c 4.0326,3.34731 4.15486,3.983 1.24845,6.49122 -1.2375,1.06796 -4.95,4.32356 -8.25,7.23466 -16.10615,14.20809 -19.12657,16.58923 -20.71913,16.33386 C 127.7962,241.45742 103,215.27133 103,213.49366 103,211.9272 106.2908,209 108.05184,209 c 0.76689,0 4.20665,2.7873 7.64391,6.19401 3.43726,3.40671 6.50047,5.94311 6.80712,5.63645 0.81802,-0.81802 2.48317,-11.69307 2.50046,-16.33046 0.025,-6.71828 4.80847,-23.28024 9.38235,-32.48512 14.17258,-28.52214 41.07373,-47.93123 70.86584,-51.12945 17.47867,-1.87635 33.21063,1.02879 50.74848,9.37145 5.24772,2.49631 14.39998,9.15468 20.60125,14.98764 17.97134,16.90395 27.50992,39.22208 27.47374,64.28234 -0.0211,14.58225 -3.1641,27.2054 -10.31655,41.43365 -4.56307,9.07721 -6.58083,11.80017 -15.25844,20.5911 -11.41255,11.56159 -17.48111,15.74884 -30.09141,20.76275 -15.92173,6.33056 -24.33066,7.68555 -40.90859,6.59191 z M 181.88507,235.62038 C 177.68534,234.11956 172,230.2793 172,228.94334 172,227.49889 175.31096,224 176.67783,224 c 0.67834,0 2.89113,1.125 4.91731,2.5 2.77868,1.88567 4.9811,2.5 8.96262,2.5 6.72468,0 8.18103,-0.59419 9.97923,-4.07152 3.83318,-7.41257 0.23717,-12.78738 -9.23638,-13.80525 -5.66404,-0.60856 -5.80799,-0.69975 -6.11397,-3.87323 -0.2716,-2.81697 -0.005,-3.25202 2,-3.26518 3.69478,-0.0243 10.87501,-2.46964 11.8703,-4.04271 1.53878,-2.43206 1.0554,-7.53046 -0.88002,-9.282 -1.0027,-0.90743 -3.88335,-1.93226 -6.40144,-2.27741 -4.51508,-0.61886 -6.80534,0.0522 -12.5142,3.66684 -2.01938,1.27859 -2.45891,1.19727 -4.48612,-0.82993 -2.80842,-2.80843 -1.8501,-4.67407 4.10133,-7.98439 7.5036,-4.17367 20.29772,-3.88766 25.65427,0.57348 7.32775,6.10285 7.22726,17.30692 -0.19082,21.27696 l -2.32143,1.24239 3.47989,2.36466 c 10.09123,6.85716 7.75012,21.81037 -4.21628,26.93045 -4.01047,1.71596 -14.59175,1.71445 -19.39705,-0.003 z M 235,236.12452 c -5.06203,-1.09082 -7.55732,-2.67758 -10.70935,-6.81011 L 221.5,225.65568 v -17.23502 -17.23502 l 3.09086,-3.84282 c 4.00871,-4.98398 7.50985,-6.64658 15.06022,-7.1517 7.95388,-0.53212 12.38878,1.00372 16.71,5.7868 4.3388,4.80252 4.95521,8.40875 4.48917,26.26304 -0.33929,12.99817 -0.44047,13.53646 -3.23207,17.19474 -4.45433,5.83721 -13.77663,8.59407 -22.61818,6.68882 z m 11.05539,-8.15416 c 4.60691,-2.46555 6.32373,-11.20825 5.05562,-25.74521 -0.6684,-7.66226 -1.21337,-9.7052 -3.13436,-11.75 -3.21123,-3.4182 -9.73389,-3.44795 -13.67089,-0.0624 -2.76886,2.38108 -2.81038,2.58528 -3.15693,15.52886 -0.19314,7.21383 -0.0624,14.26642 0.29045,15.67242 1.48373,5.91167 9.18718,9.26175 14.61611,6.35628 z"
       id="path170" />
  </g>
</svg>
