<?xml version="1.0" encoding="UTF-8" standalone="no"?>
<!-- Created with Inkscape (http://www.inkscape.org/) -->

<svg
   version="1.1"
   id="svg2"
   width="256"
   height="256"
   viewBox="0 0 256 256"
   xmlns="http://www.w3.org/2000/svg"
   xmlns:svg="http://www.w3.org/2000/svg">
  <defs
     id="defs6" />
  <g
     id="g8">
    <path
       style="fill:#090909"
       d="M 137.5,251.07634 C 107.38806,246.21555 80.526606,227.96242 65.743395,202.31565 61.898676,195.64561 60.784412,194.53176 53.883486,190.4602 30.988939,176.95236 14.413055,155.23157 7.3216152,129.44621 4.8950846,120.62305 4.5832972,117.74986 4.5602877,104 4.5371823,90.192872 4.828094,87.443158 7.2238861,78.823514 17.205313,42.912073 42.860529,17.172155 78.5,7.3120809 87.43891,4.8390274 90.14469,4.5454644 104,4.5454644 c 13.84414,0 16.56255,0.2943986 25.44621,2.7557701 25.79487,7.1469125 47.92282,24.0250005 60.8104,46.3831155 3.84471,6.67004 4.95898,7.783886 11.8599,11.85545 22.88084,13.499749 39.41965,35.16249 46.58226,61.01399 2.4594,8.87656 2.75641,11.61314 2.7618,25.44621 0.005,13.0603 -0.35587,16.83443 -2.29322,23.97795 -5.16428,19.04198 -13.30156,33.2967 -26.59713,46.59227 -13.16941,13.16941 -28.20544,21.78082 -46.39479,26.57113 -8.52031,2.2439 -30.07969,3.32255 -38.67543,1.93499 z m 29.79542,-8.56863 C 179.64279,240.35451 191.3725,235.77339 201.58,229.11763 251.00966,196.8872 258.35016,128.55706 216.84202,87.048921 185.92974,56.136638 137.39611,51.303914 100.98171,75.51216 76.977355,91.470223 61.870706,118.22242 60.331032,147.5 c -2.152549,40.93167 23.417332,78.54777 62.116498,91.38017 15.93203,5.28296 29.20062,6.3562 44.84789,3.62754 z m -28.90278,-7.59586 C 129.29011,233.38921 117.68287,229.15684 109.5,224.37669 98.866607,218.16502 85.834975,205.13339 79.62331,194.5 60.672003,162.05835 65.377528,121.61065 91.274627,94.347738 118.16363,66.040614 159.46661,59.992587 194,79.305583 204.19565,85.007557 218.99244,99.804352 224.69442,110 c 14.9347,26.70461 14.9347,57.29539 0,84 -5.70198,10.19565 -20.49877,24.99244 -30.69442,30.69442 -17.02419,9.52087 -37.39524,13.2639 -55.60736,10.21743 z M 171.5,225.49333 c 8.67497,-2.33395 21.04908,-8.69215 28.22491,-14.50284 11.96301,-9.68717 21.79345,-24.84412 25.9369,-39.99049 2.42665,-8.87063 2.40652,-28.94766 -0.0381,-38 C 221.5025,117.73927 211.25578,101.99803 199.22183,92.440823 192.37734,87.00502 179.95553,80.803888 171,78.352121 162.04168,75.89959 141.98375,75.895552 133,78.34447 117.89756,82.46131 101.86745,92.908638 92.440823,104.77817 87.01127,111.61479 80.809701,124.03195 78.345844,133 c -2.434939,8.86279 -2.418863,28.9303 0.03044,38 7.980062,29.54991 32.518556,51.45536 63.123716,56.35039 5.61924,0.89875 23.98192,-0.23794 30,-1.85706 z m -23.6925,-25.71125 c -0.28222,-3.87113 -0.59526,-4.2991 -3.8075,-5.20527 -4.84482,-1.36673 -13.25132,-10.00576 -14.78388,-15.19283 C 127.2481,172.7231 127.50041,172 131.7926,172 c 3.63194,0 3.84199,0.1847 4.95877,4.36021 3.11457,11.64504 17.73229,15.39143 26.36628,6.75744 C 173.16684,173.06846 166.10503,156 151.89814,156 c -8.26675,0 -17.03336,-5.53776 -21.14564,-13.35745 -3.02484,-5.75186 -3.01581,-15.54997 0.0197,-21.32363 2.58308,-4.9132 8.61946,-10.26961 13.36493,-11.85943 3.01329,-1.00952 3.39489,-1.55982 3.67042,-5.29307 C 148.11163,100.04558 148.1575,100 152,100 c 3.85069,0 3.88772,0.0373 4.1925,4.21792 0.28222,3.87113 0.59526,4.2991 3.8075,5.20527 4.84482,1.36673 13.25132,10.00576 14.78388,15.19283 1.96802,6.66088 1.71571,7.38398 -2.57648,7.38398 -3.63194,0 -3.84199,-0.1847 -4.95877,-4.36021 -3.11457,-11.64504 -17.73229,-15.39143 -26.36628,-6.75744 C 130.83316,130.93154 137.89497,148 152.10186,148 c 8.26675,0 17.03336,5.53776 21.14564,13.35745 3.02484,5.75186 3.01581,15.54997 -0.0197,21.32363 -2.58308,4.9132 -8.61946,10.26961 -13.36493,11.85943 -3.01329,1.00952 -3.39489,1.55982 -3.67042,5.29307 C 155.88837,203.95442 155.8425,204 152,204 c -3.85069,0 -3.88772,-0.0373 -4.1925,-4.21792 z M 55.35456,177.13405 c -1.149273,-3.92055 -3.216627,-6.6892 -10.640486,-14.25 C 21.548678,139.29132 14.25836,108.13754 24.616285,77 28.79257,64.445435 34.47447,55.52553 45,45 61.540095,28.459905 81.481866,20.015108 104,20.015108 c 22.26102,0 42.28234,8.39796 58.88405,24.698966 7.5608,7.423859 10.32945,9.491213 14.25,10.640486 C 179.81032,56.139087 182,56.486747 182,56.127138 182,54.422789 174.51582,44.674113 168.83362,38.976987 147.62912,17.716787 115.39892,7.8976743 86.5,13.893582 67.527244,17.830023 51.832891,26.177821 38.957898,39.18114 27.247914,51.007839 20.594993,62.447629 15.299881,79.861432 12.996123,87.437701 12.667688,90.283089 12.629061,103 c -0.04841,15.9363 1.144444,22.60642 6.382013,35.68663 4.045065,10.10207 10.835273,20.3266 19.379429,29.18109 C 44.639049,174.34321 54.248653,182 56.127138,182 c 0.359609,0 0.01195,-2.18968 -0.772578,-4.86595 z M 55.275471,127.5 c 1.307142,-4.95 3.348335,-11.3625 4.535983,-14.25 1.187649,-2.8875 1.721984,-5.25 1.187412,-5.25 -0.534573,0 -2.518428,1.6875 -4.408569,3.75 -3.119249,3.40369 -3.912556,3.75 -8.590297,3.75 -4.674139,0 -5.472197,-0.34756 -8.576839,-3.73531 C 36.847441,108.95409 36,107.13558 36,104.41898 36,93.091124 49.037269,88.097074 56.763458,96.465337 59.251523,99.160169 60.82374,100 63.380572,100 c 2.804752,0 3.78691,-0.654692 6.00073,-4 l 2.647075,-4 H 69.214188 C 65.232326,92 64,90.301526 64,84.813458 c 0,-4.197093 -0.435284,-5.188428 -3.534663,-8.05 -10.541387,-9.732575 1.207736,-26.386082 13.49483,-19.127917 7.173584,4.237541 7.934372,13.323706 1.601538,19.127316 C 71.007305,80.936653 70.787324,84 75.042001,84 c 2.300145,0 4.799823,-1.529992 10.25,-6.273777 3.9644,-3.450578 8.895499,-7.312279 10.957999,-8.58156 3.147271,-1.936857 3.75,-2.855057 3.75,-5.712765 0,-2.615587 -0.81946,-4.161567 -3.534663,-6.66844 -10.616122,-9.801577 1.224453,-26.376206 13.614213,-19.057395 6.91716,4.086064 7.59595,13.388028 1.39472,19.112745 -4.70902,4.347169 -4.08142,5.59942 1.52573,3.044276 8.23075,-3.750703 22.97871,-6.963325 34.78317,-7.576993 l 11.28317,-0.586568 -2.28317,-2.45803 C 153.09772,45.273789 142.78795,38.263634 135.89346,35.037485 115.34926,25.4242 90.574835,25.587847 70.419775,35.469969 24.881976,57.797369 13.705617,117.41414 47.943161,155.36439 L 51.5,159.30693 52.199424,147.90347 c 0.40639,-6.62582 1.695146,-15.17415 3.076047,-20.40347 z m -4.31534,-20.95196 C 53.616587,103.34721 49.714897,98.430267 46.25,100.6123 42.78767,102.79271 44.021173,108 48,108 c 0.965311,0 2.29737,-0.65338 2.960131,-1.45196 z m 20,-36.000001 C 73.616587,67.347205 69.714897,62.430267 66.25,64.612298 62.78767,66.792712 64.021173,72 68,72 c 0.965311,0 2.29737,-0.653382 2.960131,-1.451961 z m 35.999999,-20 c 2.65646,-3.200834 -1.24523,-8.117772 -4.71013,-5.935741 -2.22173,1.399143 -2.764729,4.062566 -1.21013,5.935741 1.54461,1.861141 4.37565,1.861141 5.92026,0 z"
       id="path847" />
  </g>
</svg>
